{
	"asset":{
		"generator":"Khronos glTF Blender I/O v3.6.28",
		"version":"2.0"
	},
	"extensionsUsed":[
		"KHR_materials_specular",
		"KHR_materials_ior"
	],
	"scene":0,
	"scenes":[
		{
			"name":"Scene",
			"nodes":[
				0
			]
		}
	],
	"nodes":[
		{
			"mesh":0,
			"name":"Sphere.009",
			"translation":[
				0.0010789106599986553,
				0.013154316693544388,
				0.014732289128005505
			]
		}
	],
	"materials":[
		{
			"doubleSided":true,
			"extensions":{
				"KHR_materials_specular":{
					"specularColorFactor":[
						1.6643014333272623,
						1.6643014333272623,
						1.6643014333272623
					]
				},
				"KHR_materials_ior":{
					"ior":1.4500000476837158
				}
			},
			"name":"Red",
			"pbrMetallicRoughness":{
				"baseColorFactor":[
					0.3036513030529022,
					0.04765942692756653,
					0.03534991294145584,
					1
				],
				"metallicFactor":0,
				"roughnessFactor":0.40544670820236206
			}
		},
		{
			"doubleSided":true,
			"name":"White",
			"pbrMetallicRoughness":{
				"baseColorFactor":[
					0.5936723351478577,
					0.5937211513519287,
					0.5936887860298157,
					1
				],
				"metallicFactor":0,
				"roughnessFactor":0.5
			}
		}
	],
	"meshes":[
		{
			"name":"Sphere.009",
			"primitives":[
				{
					"attributes":{
						"POSITION":0,
						"NORMAL":1,
						"TEXCOORD_0":2
					},
					"indices":3,
					"material":0
				},
				{
					"attributes":{
						"POSITION":4,
						"NORMAL":5,
						"TEXCOORD_0":6
					},
					"indices":7,
					"material":1
				}
			]
		}
	],
	"accessors":[
		{
			"bufferView":0,
			"componentType":5126,
			"count":3200,
			"max":[
				0.989250898361206,
				1,
				0.9999993443489075
			],
			"min":[
				-0.9999990463256836,
				-1,
				-0.9998206496238708
			],
			"type":"VEC3"
		},
		{
			"bufferView":1,
			"componentType":5126,
			"count":3200,
			"type":"VEC3"
		},
		{
			"bufferView":2,
			"componentType":5126,
			"count":3200,
			"type":"VEC2"
		},
		{
			"bufferView":3,
			"componentType":5123,
			"count":8229,
			"type":"SCALAR"
		},
		{
			"bufferView":4,
			"componentType":5126,
			"count":1217,
			"max":[
				0.9507380723953247,
				0.9607669711112976,
				0.9606228470802307
			],
			"min":[
				-0.9606225490570068,
				-0.9607669711112976,
				-0.9606235027313232
			],
			"type":"VEC3"
		},
		{
			"bufferView":5,
			"componentType":5126,
			"count":1217,
			"type":"VEC3"
		},
		{
			"bufferView":6,
			"componentType":5126,
			"count":1217,
			"type":"VEC2"
		},
		{
			"bufferView":7,
			"componentType":5123,
			"count":3795,
			"type":"SCALAR"
		}
	],
	"bufferViews":[
		{
			"buffer":0,
			"byteLength":38400,
			"byteOffset":0,
			"target":34962
		},
		{
			"buffer":0,
			"byteLength":38400,
			"byteOffset":38400,
			"target":34962
		},
		{
			"buffer":0,
			"byteLength":25600,
			"byteOffset":76800,
			"target":34962
		},
		{
			"buffer":0,
			"byteLength":16458,
			"byteOffset":102400,
			"target":34963
		},
		{
			"buffer":0,
			"byteLength":14604,
			"byteOffset":118860,
			"target":34962
		},
		{
			"buffer":0,
			"byteLength":14604,
			"byteOffset":133464,
			"target":34962
		},
		{
			"buffer":0,
			"byteLength":9736,
			"byteOffset":148068,
			"target":34962
		},
		{
			"buffer":0,
			"byteLength":7590,
			"byteOffset":157804,
			"target":34963
		}
	],
	"buffers":[
		{
			"byteLength":165396,
			"uri":"data:application/octet-stream;base64,"
		}
	]
}
