{
	"asset":{
		"generator":"Khronos glTF Blender I/O v3.6.28",
		"version":"2.0"
	},
	"extensionsUsed":[
		"KHR_materials_specular",
		"KHR_materials_ior"
	],
	"scene":0,
	"scenes":[
		{
			"name":"Scene",
			"nodes":[
				0
			]
		}
	],
	"nodes":[
		{
			"mesh":0,
			"name":"Sphere.014",
			"rotation":[
				-0.013173587620258331,
				-0.46442314982414246,
				0.1578090488910675,
				0.871340274810791
			],
			"scale":[
				0.8929124474525452,
				0.8929125070571899,
				0.8929125070571899
			],
			"translation":[
				0.0010789106599986553,
				0.013154316693544388,
				0.014732289128005505
			]
		}
	],
	"materials":[
		{
			"doubleSided":true,
			"extensions":{
				"KHR_materials_specular":{
					"specularColorFactor":[
						1.6643014333272623,
						1.6643014333272623,
						1.6643014333272623
					]
				},
				"KHR_materials_ior":{
					"ior":1.4500000476837158
				}
			},
			"name":"Red.004",
			"pbrMetallicRoughness":{
				"baseColorFactor":[
					0.3036513030529022,
					0.04765942692756653,
					0.03534991294145584,
					1
				],
				"metallicFactor":0,
				"roughnessFactor":0.40544670820236206
			}
		},
		{
			"doubleSided":true,
			"name":"White.004",
			"pbrMetallicRoughness":{
				"baseColorFactor":[
					0.5936723351478577,
					0.5937211513519287,
					0.5936887860298157,
					1
				],
				"metallicFactor":0,
				"roughnessFactor":0.5
			}
		}
	],
	"meshes":[
		{
			"name":"Sphere.017",
			"primitives":[
				{
					"attributes":{
						"POSITION":0,
						"NORMAL":1,
						"TEXCOORD_0":2
					},
					"indices":3,
					"material":0
				},
				{
					"attributes":{
						"POSITION":4,
						"NORMAL":5,
						"TEXCOORD_0":6
					},
					"indices":7,
					"material":1
				}
			]
		}
	],
	"accessors":[
		{
			"bufferView":0,
			"componentType":5126,
			"count":38268,
			"max":[
				0.9871652722358704,
				0.9895874261856079,
				0.9872307181358337
			],
			"min":[
				-0.9872305393218994,
				-0.9904525876045227,
				-0.9871125221252441
			],
			"type":"VEC3"
		},
		{
			"bufferView":1,
			"componentType":5126,
			"count":38268,
			"type":"VEC3"
		},
		{
			"bufferView":2,
			"componentType":5126,
			"count":38268,
			"type":"VEC2"
		},
		{
			"bufferView":3,
			"componentType":5123,
			"count":151233,
			"type":"SCALAR"
		},
		{
			"bufferView":4,
			"componentType":5126,
			"count":23698,
			"max":[
				0.967173159122467,
				0.9698173999786377,
				0.9672276973724365
			],
			"min":[
				-0.9672275185585022,
				-0.9709849953651428,
				-0.9671156406402588
			],
			"type":"VEC3"
		},
		{
			"bufferView":5,
			"componentType":5126,
			"count":23698,
			"type":"VEC3"
		},
		{
			"bufferView":6,
			"componentType":5126,
			"count":23698,
			"type":"VEC2"
		},
		{
			"bufferView":7,
			"componentType":5123,
			"count":110757,
			"type":"SCALAR"
		}
	],
	"bufferViews":[
		{
			"buffer":0,
			"byteLength":459216,
			"byteOffset":0,
			"target":34962
		},
		{
			"buffer":0,
			"byteLength":459216,
			"byteOffset":459216,
			"target":34962
		},
		{
			"buffer":0,
			"byteLength":306144,
			"byteOffset":918432,
			"target":34962
		},
		{
			"buffer":0,
			"byteLength":302466,
			"byteOffset":1224576,
			"target":34963
		},
		{
			"buffer":0,
			"byteLength":284376,
			"byteOffset":1527044,
			"target":34962
		},
		{
			"buffer":0,
			"byteLength":284376,
			"byteOffset":1811420,
			"target":34962
		},
		{
			"buffer":0,
			"byteLength":189584,
			"byteOffset":2095796,
			"target":34962
		},
		{
			"buffer":0,
			"byteLength":221514,
			"byteOffset":2285380,
			"target":34963
		}
	],
	"buffers":[
		{
			"byteLength":2506896,
			"uri":"data:application/octet-stream;base64,"
		}
	]
}
