{
	"asset":{
		"generator":"Khronos glTF Blender I/O v3.6.28",
		"version":"2.0"
	},
	"extensionsUsed":[
		"KHR_materials_specular",
		"KHR_materials_ior"
	],
	"scene":0,
	"scenes":[
		{
			"name":"Scene",
			"nodes":[
				0
			]
		}
	],
	"nodes":[
		{
			"mesh":0,
			"name":"Sphere.007",
			"translation":[
				0.0010789106599986553,
				0.013154316693544388,
				0.014732289128005505
			]
		}
	],
	"materials":[
		{
			"doubleSided":true,
			"extensions":{
				"KHR_materials_specular":{
					"specularColorFactor":[
						1.6643014333272623,
						1.6643014333272623,
						1.6643014333272623
					]
				},
				"KHR_materials_ior":{
					"ior":1.4500000476837158
				}
			},
			"name":"Red",
			"pbrMetallicRoughness":{
				"baseColorFactor":[
					0.3036513030529022,
					0.04765942692756653,
					0.03534991294145584,
					1
				],
				"metallicFactor":0,
				"roughnessFactor":0.40544670820236206
			}
		},
		{
			"doubleSided":true,
			"name":"White",
			"pbrMetallicRoughness":{
				"baseColorFactor":[
					0.5936723351478577,
					0.5937211513519287,
					0.5936887860298157,
					1
				],
				"metallicFactor":0,
				"roughnessFactor":0.5
			}
		}
	],
	"meshes":[
		{
			"name":"Sphere.007",
			"primitives":[
				{
					"attributes":{
						"POSITION":0,
						"NORMAL":1,
						"TEXCOORD_0":2
					},
					"indices":3,
					"material":0
				},
				{
					"attributes":{
						"POSITION":4,
						"NORMAL":5,
						"TEXCOORD_0":6
					},
					"indices":7,
					"material":1
				}
			]
		}
	],
	"accessors":[
		{
			"bufferView":0,
			"componentType":5126,
			"count":24547,
			"max":[
				0.9773248434066772,
				0.9919496178627014,
				0.9866148233413696
			],
			"min":[
				-0.9872305393218994,
				-0.9919606447219849,
				-0.9871042370796204
			],
			"type":"VEC3"
		},
		{
			"bufferView":1,
			"componentType":5126,
			"count":24547,
			"type":"VEC3"
		},
		{
			"bufferView":2,
			"componentType":5126,
			"count":24547,
			"type":"VEC2"
		},
		{
			"bufferView":3,
			"componentType":5123,
			"count":102894,
			"type":"SCALAR"
		},
		{
			"bufferView":4,
			"componentType":5126,
			"count":18842,
			"max":[
				0.9102839827537537,
				0.9172775745391846,
				0.917033851146698
			],
			"min":[
				-0.9172199964523315,
				-0.9154401421546936,
				-0.9172204732894897
			],
			"type":"VEC3"
		},
		{
			"bufferView":5,
			"componentType":5126,
			"count":18842,
			"type":"VEC3"
		},
		{
			"bufferView":6,
			"componentType":5126,
			"count":18842,
			"type":"VEC2"
		},
		{
			"bufferView":7,
			"componentType":5123,
			"count":91569,
			"type":"SCALAR"
		}
	],
	"bufferViews":[
		{
			"buffer":0,
			"byteLength":294564,
			"byteOffset":0,
			"target":34962
		},
		{
			"buffer":0,
			"byteLength":294564,
			"byteOffset":294564,
			"target":34962
		},
		{
			"buffer":0,
			"byteLength":196376,
			"byteOffset":589128,
			"target":34962
		},
		{
			"buffer":0,
			"byteLength":205788,
			"byteOffset":785504,
			"target":34963
		},
		{
			"buffer":0,
			"byteLength":226104,
			"byteOffset":991292,
			"target":34962
		},
		{
			"buffer":0,
			"byteLength":226104,
			"byteOffset":1217396,
			"target":34962
		},
		{
			"buffer":0,
			"byteLength":150736,
			"byteOffset":1443500,
			"target":34962
		},
		{
			"buffer":0,
			"byteLength":183138,
			"byteOffset":1594236,
			"target":34963
		}
	],
	"buffers":[
		{
			"byteLength":1777376,
			"uri":"data:application/octet-stream;base64,"
		}
	]
}
